<svg width="65" height="71" viewBox="0 0 65 71" fill="none" xmlns="http://www.w3.org/2000/svg">
<path d="M4.24902 69.0782C4.26239 68.8643 4.27576 68.5434 4.27576 68.2671V64.4609H4.84178V66.4398H4.85515C5.05571 66.0877 5.42117 65.8604 5.92925 65.8604C6.70919 65.8604 7.26184 66.5111 7.25738 67.4693C7.25738 68.5969 6.54875 69.154 5.84457 69.154C5.38997 69.154 5.02451 68.9802 4.7883 68.5612H4.77047L4.74373 69.0827H4.24902V69.0782ZM4.84178 67.8169C4.84178 67.8882 4.85515 67.9595 4.86852 68.0264C4.97994 68.4231 5.30975 68.6949 5.72869 68.6949C6.3259 68.6949 6.68691 68.2047 6.68691 67.4827C6.68691 66.8498 6.36156 66.3105 5.75097 66.3105C5.35877 66.3105 4.99777 66.5779 4.87744 67.0147C4.86407 67.0815 4.84624 67.1573 4.84624 67.2509V67.8169H4.84178Z" fill="#8BC342"/>
<path d="M10.8277 67.4778C10.8277 68.641 10.021 69.1491 9.25891 69.1491C8.40766 69.1491 7.74805 68.5251 7.74805 67.5268C7.74805 66.4705 8.43885 65.8555 9.30794 65.8555C10.2171 65.8599 10.8277 66.5151 10.8277 67.4778ZM8.32743 67.5134C8.32743 68.2042 8.72409 68.7257 9.28565 68.7257C9.83384 68.7257 10.2439 68.2131 10.2439 67.5C10.2439 66.9652 9.97646 66.2878 9.29902 66.2878C8.62159 66.2878 8.32743 66.9117 8.32743 67.5134Z" fill="#8BC342"/>
<path d="M11.7323 65.9336L12.1468 67.5336C12.2359 67.8857 12.3206 68.211 12.383 68.5364H12.4008C12.4721 68.2155 12.5746 67.8812 12.6816 67.5425L13.1941 65.9336H13.6799L14.1702 67.5068C14.286 67.8857 14.3796 68.2155 14.4509 68.5364H14.4688C14.5223 68.2155 14.6069 67.8857 14.7094 67.5158L15.1596 65.9336H15.7256L14.7094 69.0846H14.188L13.7067 67.5826C13.5952 67.2305 13.5061 66.9185 13.4259 66.5486H13.4125C13.3323 66.9275 13.2387 67.2528 13.1273 67.5915L12.6192 69.089H12.0977L11.1484 65.938H11.7323V65.9336Z" fill="#8BC342"/>
<path d="M16.2959 64.4609H16.8664V69.0827H16.2959V64.4609Z" fill="#8BC342"/>
<path d="M18.1498 67.6109C18.1631 68.3864 18.6578 68.7028 19.2283 68.7028C19.6383 68.7028 19.8835 68.6315 20.1018 68.5379L20.1999 68.948C19.9993 69.0371 19.6517 69.1441 19.1525 69.1441C18.1809 69.1441 17.6016 68.5067 17.6016 67.5574C17.6016 66.6081 18.1631 65.8594 19.0768 65.8594C20.1063 65.8594 20.3782 66.7641 20.3782 67.3435C20.3782 67.4594 20.3648 67.553 20.3603 67.6109H18.1498ZM19.83 67.2009C19.8344 66.8354 19.6784 66.2694 19.0367 66.2694C18.4573 66.2694 18.2032 66.8042 18.1587 67.2009H19.83Z" fill="#8BC342"/>
<path d="M21.0912 66.9112C21.0912 66.5413 21.0867 66.2204 21.0645 65.9307H21.5636L21.5814 66.5502H21.6082C21.7508 66.1268 22.0984 65.8594 22.4817 65.8594C22.5486 65.8594 22.5931 65.8638 22.6466 65.8772V66.4165C22.5887 66.4031 22.5307 66.3987 22.4505 66.3987C22.045 66.3987 21.7597 66.7062 21.684 67.134C21.6706 67.2143 21.6572 67.3034 21.6572 67.4014V69.0817H21.0912V66.9112Z" fill="#8BC342"/>
<path d="M23.1412 68.4934C23.3106 68.6048 23.6092 68.7207 23.8944 68.7207C24.3089 68.7207 24.505 68.5112 24.505 68.2527C24.505 67.9808 24.3401 67.8293 23.9212 67.6733C23.3551 67.4727 23.0877 67.1608 23.0877 66.7819C23.0877 66.2739 23.4978 65.8594 24.1752 65.8594C24.4961 65.8594 24.7724 65.9485 24.9507 66.0555L24.8081 66.47C24.6833 66.3897 24.456 66.2872 24.1618 66.2872C23.8231 66.2872 23.6359 66.4833 23.6359 66.7151C23.6359 66.9736 23.8231 67.0939 24.2331 67.2499C24.7813 67.4594 25.0576 67.7312 25.0576 68.1992C25.0576 68.7519 24.6298 69.1441 23.881 69.1441C23.5379 69.1441 23.217 69.0594 22.9941 68.9301L23.1412 68.4934Z" fill="#8BC342"/>
<path d="M25.7933 66.7819C25.7933 66.4566 25.7889 66.1892 25.7666 65.9307H26.2747L26.3059 66.4521H26.3192C26.4752 66.1535 26.8407 65.8594 27.3621 65.8594C27.7989 65.8594 28.4764 66.1179 28.4764 67.2009V69.0817H27.9059V67.2677C27.9059 66.7597 27.7187 66.3363 27.175 66.3363C26.7961 66.3363 26.5064 66.6037 26.4084 66.9201C26.3816 66.9914 26.3683 67.0895 26.3683 67.1875V69.0817H25.7978V66.7819H25.7933Z" fill="#8BC342"/>
<path d="M29.724 67.6109C29.7373 68.3864 30.232 68.7028 30.8025 68.7028C31.2126 68.7028 31.4577 68.6315 31.6761 68.5379L31.7741 68.948C31.5736 69.0371 31.2259 69.1441 30.7268 69.1441C29.7552 69.1441 29.1758 68.5067 29.1758 67.5574C29.1758 66.6081 29.7373 65.8594 30.651 65.8594C31.6805 65.8594 31.9524 66.7641 31.9524 67.3435C31.9524 67.4594 31.939 67.553 31.9346 67.6109H29.724ZM31.4042 67.2009C31.4087 66.8354 31.2527 66.2694 30.6109 66.2694C30.0315 66.2694 29.7775 66.8042 29.7329 67.2009H31.4042Z" fill="#8BC342"/>
<path d="M33.3561 65.0273V65.9321H34.1761V66.3688H33.3561V68.0669C33.3561 68.4591 33.4675 68.6775 33.7839 68.6775C33.9355 68.6775 34.0424 68.6597 34.1137 68.6374L34.1405 69.0652C34.0291 69.1098 33.8552 69.1455 33.6324 69.1455C33.365 69.1455 33.1511 69.0608 33.0129 68.9048C32.8525 68.7354 32.7901 68.4546 32.7901 68.0847V66.3688H32.2998V65.9321H32.7901V65.1789L33.3561 65.0273Z" fill="#8BC342"/>
<path d="M35.1083 65.9336L35.5227 67.5336C35.6119 67.8857 35.6966 68.211 35.759 68.5364H35.7768C35.8481 68.2155 35.9506 67.8812 36.0576 67.5425L36.5701 65.9336H37.0514L37.5417 67.5068C37.6576 67.8857 37.7512 68.2155 37.8225 68.5364H37.8403C37.8938 68.2155 37.9785 67.8857 38.081 67.5158L38.5311 65.9336H39.0971L38.081 69.0846H37.5595L37.0782 67.5826C36.9668 67.2305 36.8776 66.9185 36.7974 66.5486H36.784C36.7038 66.9275 36.6102 67.2528 36.4988 67.5915L35.9907 69.089H35.4737L34.5244 65.938H35.1083V65.9336Z" fill="#8BC342"/>
<path d="M42.4527 67.4778C42.4527 68.641 41.646 69.1491 40.8839 69.1491C40.0327 69.1491 39.373 68.5251 39.373 67.5268C39.373 66.4705 40.0639 65.8555 40.9329 65.8555C41.8421 65.8599 42.4527 66.5151 42.4527 67.4778ZM39.9569 67.5134C39.9569 68.2042 40.3535 68.7257 40.9151 68.7257C41.4633 68.7257 41.8733 68.2131 41.8733 67.5C41.8733 66.9652 41.6059 66.2878 40.9285 66.2878C40.2466 66.2878 39.9569 66.9117 39.9569 67.5134Z" fill="#8BC342"/>
<path d="M43.1752 66.9112C43.1752 66.5413 43.1707 66.2204 43.1484 65.9307H43.6476L43.6654 66.5502H43.6922C43.8348 66.1268 44.1824 65.8594 44.5657 65.8594C44.6326 65.8594 44.6771 65.8638 44.7306 65.8772V66.4165C44.6727 66.4031 44.6147 66.3987 44.5345 66.3987C44.1289 66.3987 43.8437 66.7062 43.7679 67.134C43.7546 67.2143 43.7412 67.3034 43.7412 67.4014V69.0817H43.1752V66.9112Z" fill="#8BC342"/>
<path d="M45.8981 67.3757H45.9114C45.9916 67.2643 46.0986 67.1306 46.1922 67.0192L47.1148 65.9317H47.8056L46.5889 67.2286L47.9749 69.0827H47.2797L46.1922 67.5718L45.8981 67.8971V69.0827H45.332V64.4609H45.8981V67.3757Z" fill="#8BC342"/>
<path d="M48.3359 68.7421C48.3359 68.5014 48.5008 68.332 48.7281 68.332C48.9554 68.332 49.1114 68.5014 49.1114 68.7421C49.1114 68.9783 48.9599 69.1521 48.7192 69.1521C48.4919 69.1521 48.3359 68.9738 48.3359 68.7421Z" fill="#8BC342"/>
<path d="M52.0663 68.9608C51.9148 69.041 51.585 69.1435 51.1616 69.1435C50.2123 69.1435 49.5928 68.4973 49.5928 67.5346C49.5928 66.563 50.2568 65.8633 51.2864 65.8633C51.6251 65.8633 51.9237 65.948 52.0797 66.0282L51.9504 66.4694C51.8123 66.3892 51.5983 66.3179 51.2864 66.3179C50.5644 66.3179 50.1722 66.8527 50.1722 67.5078C50.1722 68.2388 50.6401 68.6844 51.2641 68.6844C51.5894 68.6844 51.8034 68.5998 51.9683 68.5285L52.0663 68.9608Z" fill="#8BC342"/>
<path d="M55.5474 67.4778C55.5474 68.641 54.7407 69.1491 53.9786 69.1491C53.1274 69.1491 52.4678 68.5251 52.4678 67.5268C52.4678 66.4705 53.1586 65.8555 54.0277 65.8555C54.9369 65.8599 55.5474 66.5151 55.5474 67.4778ZM53.0472 67.5134C53.0472 68.2042 53.4438 68.7257 54.0054 68.7257C54.5536 68.7257 54.9636 68.2131 54.9636 67.5C54.9636 66.9652 54.6962 66.2878 54.0187 66.2878C53.3413 66.2878 53.0472 66.9117 53.0472 67.5134Z" fill="#8BC342"/>
<path d="M56.2689 66.7819C56.2689 66.4566 56.2645 66.1892 56.2422 65.9307H56.7413L56.7681 66.4388H56.7859C56.9597 66.1402 57.2539 65.8594 57.7753 65.8594C58.2032 65.8594 58.5285 66.1179 58.6667 66.4922H58.6801C58.7781 66.3184 58.9029 66.1803 59.0322 66.0822C59.2193 65.9396 59.4288 65.8594 59.7274 65.8594C60.1419 65.8594 60.7614 66.1312 60.7614 67.2276V69.0817H60.2088V67.2989C60.2088 66.6928 59.9859 66.3273 59.5269 66.3273C59.2015 66.3273 58.9475 66.568 58.8494 66.8488C58.8227 66.929 58.8049 67.0315 58.8049 67.134V69.0817H58.2433V67.1964C58.2433 66.6973 58.0205 66.3318 57.5881 66.3318C57.2316 66.3318 56.9687 66.617 56.8795 66.9023C56.8483 66.987 56.8349 67.085 56.8349 67.1831V69.0817H56.2734V66.7819H56.2689Z" fill="#8BC342"/>
<path d="M43.5399 58.3441C40.0458 59.8238 36.3333 60.5725 32.5093 60.5725C28.6853 60.5725 24.9728 59.8238 21.4787 58.3441C18.1048 56.9179 15.0742 54.8722 12.4714 52.2695C9.86863 49.6667 7.82741 46.636 6.39677 43.2622C4.9171 39.7681 4.16836 36.0555 4.16836 32.2316C4.16836 28.4076 4.9171 24.6951 6.39677 21.2009C7.82295 17.8271 9.86863 14.7965 12.4714 12.1937C13.5099 11.1553 14.6107 10.2104 15.7784 9.3547V6.89453C7.56446 12.3274 2.14941 21.6466 2.14941 32.2316C2.14941 48.9982 15.7427 62.5915 32.5093 62.5915C36.7076 62.5915 40.7054 61.7402 44.3422 60.1982V57.9876C44.0748 58.1124 43.8074 58.2327 43.5399 58.3441Z" fill="#8BC342"/>
<path d="M32.5096 1.87109C28.3113 1.87109 24.3135 2.72235 20.6768 4.26441V6.47499C20.9397 6.35466 21.2071 6.23433 21.4745 6.12291C24.9687 4.64324 28.6812 3.89449 32.5052 3.89449C36.3291 3.89449 40.0417 4.64324 43.5358 6.12291C46.9096 7.54909 49.9403 9.59477 52.5431 12.1976C55.1458 14.8003 57.1871 17.831 58.6177 21.2048C60.0974 24.6989 60.8461 28.4115 60.8461 32.2354C60.8461 36.0594 60.0974 39.7719 58.6177 43.2661C57.1915 46.6399 55.1458 49.6705 52.5431 52.2733C51.5046 53.3118 50.4038 54.2566 49.2361 55.1123V57.5725C57.45 52.1396 62.8651 42.8204 62.8651 32.2354C62.8695 15.4644 49.2762 1.87109 32.5096 1.87109Z" fill="#8BC342"/>
<path d="M32.5091 5.13672C28.2706 5.13672 24.255 6.11722 20.6762 7.85984V24.3991C22.5347 21.0966 26.0422 19.2381 30.1692 19.2381C33.0082 19.2381 35.7804 20.1117 38.0311 21.7696C38.1737 21.0743 38.5837 20.437 39.2299 20.0314C40.4868 19.2337 42.1536 19.608 42.9514 20.8649C43.7492 22.1217 43.3748 23.7885 42.118 24.5863C42.06 24.622 41.9976 24.6576 41.9352 24.6933C42.8756 23.9802 43.1297 22.652 42.4879 21.6359C41.8104 20.5662 40.3932 20.2498 39.3235 20.9272C38.8868 21.2036 38.5748 21.6047 38.4054 22.0593C41.2221 24.31 43.1252 27.8532 43.1252 32.5016C43.1252 40.4615 37.5007 46.0192 29.4606 46.0682V42.4359C29.4606 42.1239 29.4695 41.8208 29.4918 41.5267C34.7063 41.4866 38.1737 37.783 38.1737 32.6532C38.1737 27.4922 34.6662 23.7796 29.4026 23.7796C24.1926 23.7796 20.6851 27.4966 20.6851 32.6532C20.6851 35.5947 21.826 38.0682 23.7737 39.6504C23.6444 40.5328 23.582 41.4598 23.582 42.4359V44.9807C18.8266 43.0242 15.7737 38.5406 15.7737 32.4481V10.935C9.47173 15.9 5.41602 23.6013 5.41602 32.2298C5.41602 47.169 17.5698 59.3228 32.5091 59.3228C36.7475 59.3228 40.7631 58.3423 44.3419 56.5997V42.4359C44.3419 40.2075 43.8472 38.4203 42.9514 37.0743C43.3926 35.6392 43.6155 34.1105 43.6155 32.4972C43.6155 32.0337 43.5976 31.5791 43.562 31.1334C47.1185 33.0988 49.2489 36.8738 49.2489 42.4359V53.5245C55.5553 48.5596 59.611 40.8582 59.611 32.2298C59.5976 17.2905 47.4439 5.13672 32.5091 5.13672ZM39.9742 14.7233C39.9163 14.759 39.8539 14.7947 39.7915 14.8303C40.7319 14.1172 40.9859 12.7891 40.3442 11.7729C39.6667 10.7033 38.2494 10.3869 37.1798 11.0643C36.1637 11.7061 35.8294 13.0164 36.3776 14.0637C36.3375 14.0103 36.2974 13.9523 36.2572 13.8899C35.4595 12.6331 35.8338 10.9662 37.0907 10.1685C38.3475 9.3707 40.0144 9.74508 40.8121 11.0019C41.6099 12.2587 41.2311 13.9256 39.9742 14.7233ZM28.9614 51.6036H24.0634V42.4359C24.0634 33.9234 29.1174 29.5378 36.6539 29.5378C36.8322 29.5378 37.006 29.5423 37.1798 29.5467C37.5096 30.505 37.679 31.5568 37.679 32.6576C37.679 33.1568 37.6433 33.647 37.5765 34.1194C37.2779 34.0927 36.9703 34.0793 36.6539 34.0793C32.0099 34.0793 28.9659 36.9183 28.9659 42.4359V51.6036H28.9614ZM50.9068 22.2153C50.8489 22.2509 50.7865 22.2866 50.7241 22.3222C51.6645 21.6091 51.9185 20.281 51.2767 19.2649C50.5993 18.1952 49.182 17.8788 48.1124 18.5562C47.0962 19.198 46.762 20.5083 47.3102 21.5557C47.2701 21.5022 47.2299 21.4442 47.1898 21.3818C46.3921 20.125 46.7664 18.4582 48.0233 17.6604C49.2801 16.8626 50.9469 17.237 51.7447 18.4938C52.538 19.7506 52.1637 21.4175 50.9068 22.2153Z" fill="white"/>
</svg>
